HIERARCHY
ROOT Hips
{
  OFFSET 5.80788e-005 67.184 3.4734
  CHANNELS 6 Xposition Yposition Zposition Zrotation Xrotation Yrotation
  JOINT Chest
  {
    OFFSET 0 8.7983 -4.7612
    CHANNELS 3 Zrotation Xrotation Yrotation
    JOINT Chest2
    {
      OFFSET 0 8.0291 0.4195
      CHANNELS 3 Zrotation Xrotation Yrotation
      JOINT Chest3
      {
        OFFSET 0 9.9351 -2.2114
        CHANNELS 3 Zrotation Xrotation Yrotation
        JOINT Neck
        {
          OFFSET 0 22.3885 -0.4656
          CHANNELS 3 Zrotation Xrotation Yrotation
          JOINT Head
          {
            OFFSET -0.0001 12.643 3.4389
            CHANNELS 3 Zrotation Xrotation Yrotation
            End Site
            {
              OFFSET 0.0001 17.6655 0.5274
            }
          }
        }
        JOINT LeftCollar
        {
          OFFSET 2.2603 21.606 7.4023
          CHANNELS 3 Zrotation Xrotation Yrotation
          JOINT LeftShoulder
          {
            OFFSET 13.5163 -1.1332 -5.0146
            CHANNELS 3 Zrotation Xrotation Yrotation
            JOINT LeftElbow
            {
              OFFSET -0.0995 -28.05 -0.2431
              CHANNELS 3 Zrotation Xrotation Yrotation
              JOINT LeftWrist
              {
                OFFSET 0.0679 -23.3996 -0.1402
                CHANNELS 3 Zrotation Xrotation Yrotation
                JOINT LeftFinger1
                {
                  OFFSET 0.7932 -9.069 2.5189
                  CHANNELS 3 Zrotation Xrotation Yrotation
                  JOINT LeftFinger11
                  {
                    OFFSET -0.8272 -3.3923 0.5977
                    CHANNELS 3 Zrotation Xrotation Yrotation
                    JOINT LeftFinger12
                    {
                      OFFSET -0.5649 -2.3158 0.4082
                      CHANNELS 3 Zrotation Xrotation Yrotation
                      End Site
                      {
                        OFFSET -0.4919 -1.6479 0.2673
                      }
                    }
                  }
                }
                JOINT LeftFinger2
                {
                  OFFSET 0.9159 -9.2044 0.2193
                  CHANNELS 3 Zrotation Xrotation Yrotation
                  JOINT LeftFinger21
                  {
                    OFFSET 0.0117 -4.1944 -0.0248
                    CHANNELS 3 Zrotation Xrotation Yrotation
                    JOINT LeftFinger22
                    {
                      OFFSET 0.0071 -2.3249 -0.0142
                      CHANNELS 3 Zrotation Xrotation Yrotation
                      End Site
                      {
                        OFFSET -0.1475 -2.0882 0.0028
                      }
                    }
                  }
                }
                JOINT LeftFinger3
                {
                  OFFSET 0.6113 -8.7231 -2.0637
                  CHANNELS 3 Zrotation Xrotation Yrotation
                  JOINT LeftFinger31
                  {
                    OFFSET -0.1927 -3.8059 -0.2383
                    CHANNELS 3 Zrotation Xrotation Yrotation
                    JOINT LeftFinger32
                    {
                      OFFSET -0.1091 -2.1688 -0.1362
                      CHANNELS 3 Zrotation Xrotation Yrotation
                      End Site
                      {
                        OFFSET -0.2358 -1.9176 -0.0906
                      }
                    }
                  }
                }
                JOINT LeftFinger4
                {
                  OFFSET -0.6151 -8.0947 -3.5641
                  CHANNELS 3 Zrotation Xrotation Yrotation
                  JOINT LeftFinger41
                  {
                    OFFSET -0.4882 -2.341 -0.6462
                    CHANNELS 3 Zrotation Xrotation Yrotation
                    JOINT LeftFinger42
                    {
                      OFFSET -0.3575 -1.7167 -0.4742
                      CHANNELS 3 Zrotation Xrotation Yrotation
                      End Site
                      {
                        OFFSET -0.4187 -1.5237 -0.3496
                      }
                    }
                  }
                }
                JOINT LeftFinger0
                {
                  OFFSET -1.42 -1.8761 1.4223
                  CHANNELS 3 Zrotation Xrotation Yrotation
                  JOINT LeftFinger01
                  {
                    OFFSET -1.1471 -3.4929 2.6334
                    CHANNELS 3 Zrotation Xrotation Yrotation
                    JOINT LeftFinger02
                    {
                      OFFSET -0.823 -2.3 1.6571
                      CHANNELS 3 Zrotation Xrotation Yrotation
                      End Site
                      {
                        OFFSET -0.5822 -1.6914 1.1582
                      }
                    }
                  }
                }
              }
            }
          }
        }
        JOINT RightCollar
        {
          OFFSET -2.2603 21.606 7.4023
          CHANNELS 3 Zrotation Xrotation Yrotation
          JOINT RightShoulder
          {
            OFFSET -13.5187 -1.1334 -5.0155
            CHANNELS 3 Zrotation Xrotation Yrotation
            JOINT RightElbow
            {
              OFFSET 0.0994 -28.0499 -0.2431
              CHANNELS 3 Zrotation Xrotation Yrotation
              JOINT RightWrist
              {
                OFFSET -0.0679 -23.3996 -0.1402
                CHANNELS 3 Zrotation Xrotation Yrotation
                JOINT RightFinger1
                {
                  OFFSET -0.7932 -9.0691 2.5189
                  CHANNELS 3 Zrotation Xrotation Yrotation
                  JOINT RightFinger11
                  {
                    OFFSET 0.8272 -3.3923 0.5977
                    CHANNELS 3 Zrotation Xrotation Yrotation
                    JOINT RightFinger12
                    {
                      OFFSET 0.565 -2.3158 0.4082
                      CHANNELS 3 Zrotation Xrotation Yrotation
                      End Site
                      {
                        OFFSET 0.4919 -1.6479 0.2673
                      }
                    }
                  }
                }
                JOINT RightFinger2
                {
                  OFFSET -0.916 -9.2044 0.2193
                  CHANNELS 3 Zrotation Xrotation Yrotation
                  JOINT RightFinger21
                  {
                    OFFSET -0.0117 -4.1944 -0.0248
                    CHANNELS 3 Zrotation Xrotation Yrotation
                    JOINT RightFinger22
                    {
                      OFFSET -0.0071 -2.3249 -0.0142
                      CHANNELS 3 Zrotation Xrotation Yrotation
                      End Site
                      {
                        OFFSET 0.1475 -2.0882 0.0028
                      }
                    }
                  }
                }
                JOINT RightFinger3
                {
                  OFFSET -0.6113 -8.7231 -2.0637
                  CHANNELS 3 Zrotation Xrotation Yrotation
                  JOINT RightFinger31
                  {
                    OFFSET 0.1927 -3.8059 -0.2383
                    CHANNELS 3 Zrotation Xrotation Yrotation
                    JOINT RightFinger32
                    {
                      OFFSET 0.1091 -2.1688 -0.1362
                      CHANNELS 3 Zrotation Xrotation Yrotation
                      End Site
                      {
                        OFFSET 0.2358 -1.9176 -0.0906
                      }
                    }
                  }
                }
                JOINT RightFinger4
                {
                  OFFSET 0.6151 -8.0947 -3.564
                  CHANNELS 3 Zrotation Xrotation Yrotation
                  JOINT RightFinger41
                  {
                    OFFSET 0.4882 -2.341 -0.6462
                    CHANNELS 3 Zrotation Xrotation Yrotation
                    JOINT RightFinger42
                    {
                      OFFSET 0.3574 -1.7166 -0.4742
                      CHANNELS 3 Zrotation Xrotation Yrotation
                      End Site
                      {
                        OFFSET 0.4187 -1.5237 -0.3496
                      }
                    }
                  }
                }
                JOINT RightFinger0
                {
                  OFFSET 1.4199 -1.8761 1.4221
                  CHANNELS 3 Zrotation Xrotation Yrotation
                  JOINT RightFinger01
                  {
                    OFFSET 1.1472 -3.4929 2.6336
                    CHANNELS 3 Zrotation Xrotation Yrotation
                    JOINT RightFinger02
                    {
                      OFFSET 0.8229 -2.3 1.6571
                      CHANNELS 3 Zrotation Xrotation Yrotation
                      End Site
                      {
                        OFFSET 0.5822 -1.6914 1.1582
                      }
                    }
                  }
                }
              }
            }
          }
        }
      }
    }
  }
  JOINT RightHip
  {
    OFFSET -9.412 3.9771 -0.7758
    CHANNELS 3 Zrotation Xrotation Yrotation
    JOINT RightKnee
    {
      OFFSET -0.7531 -40.938 0
      CHANNELS 3 Zrotation Xrotation Yrotation
      JOINT RightAnkle
      {
        OFFSET 0 -40.1986 0
        CHANNELS 3 Zrotation Xrotation Yrotation
        JOINT RightToe
        {
          OFFSET 0 -4.4182 9.239
          CHANNELS 3 Zrotation Xrotation Yrotation
          End Site
          {
            OFFSET 0 0 6.1981
          }
        }
      }
    }
  }
  JOINT LeftHip
  {
    OFFSET 9.4119 3.9773 -0.7758
    CHANNELS 3 Zrotation Xrotation Yrotation
    JOINT LeftKnee
    {
      OFFSET 0.7532 -40.9383 0
      CHANNELS 3 Zrotation Xrotation Yrotation
      JOINT LeftAnkle
      {
        OFFSET 0 -40.1986 0
        CHANNELS 3 Zrotation Xrotation Yrotation
        JOINT LeftToe
        {
          OFFSET 0 -4.4182 9.239
          CHANNELS 3 Zrotation Xrotation Yrotation
          End Site
          {
            OFFSET 0 0 6.1981
          }
        }
      }
    }
  }
}
MOTION
Frames:	6
Frame Time:	0.0333333
5.80788e-005 67.184 3.4734 0 0 -0 0 0 -0 0 0 -0 0 0 -0 0 0 -0 -0 0 0.00140347 0 0 -12.5014 88.1196 14.2451 10.6914 -0.00160068 -0.00239207 0.000740045 -8.4365e-005 7.00714e-005 -9.52055e-007 9.93923e-017 -1.98785e-016 -1.59028e-015 9.93923e-017 -5.96354e-016 -1.59028e-015 -9.93923e-017 -5.96354e-016 -1.59028e-015 9.93923e-017 -1.98785e-016 -1.59028e-015 -0.0128176 0.00232552 8.52707e-005 9.93923e-017 5.96354e-016 -0 9.93923e-017 -1.98785e-016 -1.59028e-015 -0.0160551 0.00299681 0.000857156 -2.48481e-016 0 3.18055e-015 9.93923e-017 -1.98785e-016 -1.59028e-015 -0.0125865 0.0031206 0.00282719 0 1.98785e-016 -0 9.93923e-017 -1.98785e-016 -1.59028e-015 9.93923e-017 -5.96354e-016 -1.59028e-015 -9.93923e-017 -5.96354e-016 -1.59028e-015 -0.865644 0.16582 7.03859 -88.0329 10.2057 -10.5567 0.0015593 -0.00248883 -0.000788628 7.87605e-005 4.10553e-005 1.24965e-005 -3.97569e-016 -7.95139e-016 3.18055e-015 -1.98785e-016 -3.97569e-016 3.18055e-015 -1.98785e-016 0 3.18055e-015 -3.97569e-016 -7.95139e-016 3.18055e-015 0.0129473 0.00231697 -8.70038e-005 9.93923e-017 -7.95139e-016 1.59028e-015 -3.97569e-016 -7.95139e-016 3.18055e-015 0.0163314 0.00303369 -0.000872333 3.97569e-016 7.95139e-016 -3.18055e-015 -3.97569e-016 -7.95139e-016 3.18055e-015 0.0145763 0.00367772 -0.00326275 9.93923e-017 -3.97569e-016 -0 -3.97569e-016 -7.95139e-016 3.18055e-015 -1.98785e-016 -3.97569e-016 3.18055e-015 -1.98785e-016 0 3.18055e-015 3.42485 1.36937 -0.0640303 0.000136572 0.69354 0.00145564 -3.42573 -2.06297 -0.0607933 -3.19502e-024 0 -1.48106e-024 -3.42498 1.36123 0.0639712 -6.769e-005 0.712612 -0.0012277 3.42582 -2.07388 0.0612819 2.55305e-023 0 -2.31416e-026 
1.63374 41.543 -3.11973 1.1818e-008 40.9966 6.66051e-007 -1.27926 -1.01652 -1.77604 -2.59001 -1.9926 -3.57516 -2.59001 -1.99262 -3.57515 -3.47599e-005 -0.0892056 -5.10888e-005 -0.17661 0.389922 0.00140348 -9.36494 -7.85824 -52.7602 39.172 36.3975 28.0652 -60.8484 -48.1925 -37.1832 40.79 -19.1365 32.7381 -3.97569e-016 6.36111e-015 -1.98785e-015 -7.95139e-016 3.18055e-015 -7.95139e-016 3.97569e-016 3.18055e-015 -1.59028e-015 -3.97569e-016 6.36111e-015 -1.98785e-015 -0.0128125 0.00231005 8.07274e-005 -7.95139e-016 3.18055e-015 1.19271e-015 -3.97569e-016 6.36111e-015 -1.98785e-015 -0.0160447 0.00299433 0.000855091 7.95139e-016 -1.27222e-014 -2.38542e-015 -3.97569e-016 6.36111e-015 -1.98785e-015 -0.012587 0.00312333 0.0028251 1.19271e-015 -6.36111e-015 7.95139e-016 -3.97569e-016 6.36111e-015 -1.98785e-015 -7.95139e-016 3.18055e-015 -7.95139e-016 3.97569e-016 3.18055e-015 -1.59028e-015 46.8241 -4.02665 -7.08304 -50.7387 27.2921 -20.3303 39.2978 -2.16157 15.9509 16.4386 -31.6732 -37.4893 1.49089e-016 2.44754e-015 1.19271e-015 1.49089e-016 2.44132e-015 -0 1.49089e-016 2.43511e-015 -0 1.49089e-016 2.44754e-015 1.19271e-015 0.0129469 0.0023247 -9.38134e-005 -2.98177e-016 3.23802e-015 -0 1.49089e-016 2.44754e-015 1.19271e-015 0.0163236 0.00308248 -0.000884681 1.63997e-015 5.64828e-015 1.19271e-014 1.49089e-016 2.44754e-015 1.19271e-015 0.0145863 0.00365998 -0.00327289 -1.98785e-016 5.27245e-015 -1.19271e-015 1.49089e-016 2.44754e-015 1.19271e-015 1.49089e-016 2.44132e-015 -0 1.49089e-016 2.43511e-015 -0 -60.6824 -29.0937 -23.7808 -174.952 81.8101 173.279 55.1838 34.4376 -57.7826 4.87739e-007 -3.44831e-006 -6.73379e-006 60.6377 -29.1101 23.7065 175.36 81.8214 -173.68 -55.2643 34.3959 57.8188 8.16784e-007 -4.0619e-007 -4.73399e-006 
1.63392 41.4582 -2.57533 6.35363e-007 40.0552 4.2907e-007 -1.28055 -0.948708 -1.77131 -2.59032 -1.85709 -3.56407 -2.59032 -1.85711 -3.56407 -2.07424e-005 -0.0440195 -2.64885e-005 -0.176052 0.462302 0.00140426 -9.58802 -7.44362 -52.705 39.1702 36.3785 28.0654 -59.6083 -47.8626 -36.1758 40.5228 -19.3969 32.9215 0 9.54166e-015 -0 -1.59028e-015 1.27222e-014 -3.97569e-016 -3.97569e-016 1.90833e-014 -7.95139e-016 0 9.54166e-015 -0 -0.0128167 0.00232587 9.26029e-005 -7.95139e-016 -6.36111e-015 7.95139e-016 0 9.54166e-015 -0 -0.01605 0.00300831 0.000857975 -1.98785e-015 0 1.59028e-015 0 9.54166e-015 -0 -0.0125988 0.00313623 0.00283179 6.62086e-032 3.18055e-015 -1.19271e-015 0 9.54166e-015 -0 -1.59028e-015 1.27222e-014 -3.97569e-016 -3.97569e-016 1.90833e-014 -7.95139e-016 46.9744 -4.06041 -6.84843 -50.7859 26.8626 -20.2546 39.2977 -2.16152 15.9509 17.2083 -30.7846 -37.9406 8.24952e-006 5.13428e-005 -4.53354e-006 4.57758e-006 -3.78113e-005 6.62605e-006 -1.98785e-016 -2.08103e-015 -3.97569e-016 8.24952e-006 5.13428e-005 -4.53354e-006 0.0129434 0.00231232 -7.72142e-005 1.98785e-016 7.06928e-015 7.95139e-016 8.24952e-006 5.13428e-005 -4.53354e-006 0.0163123 0.00302701 -0.000871591 -2.14661e-032 1.54679e-015 7.95139e-016 8.24952e-006 5.13428e-005 -4.53354e-006 0.0146035 0.00366035 -0.00326626 1.98785e-016 3.06874e-015 7.95139e-016 8.24952e-006 5.13428e-005 -4.53354e-006 4.57758e-006 -3.78113e-005 6.62605e-006 -1.98785e-016 -2.08103e-015 -3.97569e-016 -60.4568 -27.7902 -23.3504 -174.919 82.4755 173.261 54.4984 34.7658 -57.4477 -1.14408e-006 -5.19086e-006 5.03482e-006 60.4351 -27.8163 23.2785 175.363 82.4863 -173.697 -54.5816 34.725 57.4869 9.79917e-007 -1.05467e-007 1.39811e-006 
1.6341 41.3754 -2.03014 0 39.1127 -0 -1.28183 -0.880866 -1.76656 -2.59066 -1.72156 -3.553 -2.59066 -1.72157 -3.55299 2.99265e-005 0.00117604 3.82388e-005 -0.175493 0.534688 0.00140302 -9.8113 -7.02909 -52.6483 39.1673 36.3616 28.0664 -58.3859 -47.5191 -35.1875 40.2561 -19.6582 33.104 -2.64834e-031 1.27222e-014 1.19271e-015 1.19271e-015 1.27222e-014 -7.95139e-016 1.19271e-015 3.18055e-015 -3.97569e-016 -2.64834e-031 1.27222e-014 1.19271e-015 -0.0127869 0.00230813 7.9344e-005 -7.95139e-016 -9.54166e-015 2.78299e-015 -2.64834e-031 1.27222e-014 1.19271e-015 -0.0160545 0.00298729 0.000858255 0 0 -7.95139e-016 -2.64834e-031 1.27222e-014 1.19271e-015 -0.0125892 0.00311919 0.00282359 -1.19271e-015 -3.18055e-015 2.78299e-015 -2.64834e-031 1.27222e-014 1.19271e-015 1.19271e-015 1.27222e-014 -7.95139e-016 1.19271e-015 3.18055e-015 -3.97569e-016 47.1249 -4.09351 -6.6137 -50.8322 26.4334 -20.1796 39.2978 -2.16185 15.9511 17.9809 -29.899 -38.4026 -0 -4.78326e-015 -0 -0 -4.75841e-015 -0 -7.95139e-016 -1.55301e-015 1.98785e-016 -0 -4.78326e-015 -0 0.0129807 0.00231241 -7.59892e-005 1.81039e-032 -2.60905e-015 3.97569e-016 -0 -4.78326e-015 -0 0.0163145 0.00303606 -0.000869691 -1.3621e-032 3.926e-015 1.98785e-016 -0 -4.78326e-015 -0 0.0145617 0.00366583 -0.00324954 1.19271e-015 -1.0548e-014 5.96354e-016 -0 -4.78326e-015 -0 -0 -4.75841e-015 -0 -7.95139e-016 -1.55301e-015 1.98785e-016 -60.2431 -26.483 -22.9301 -174.881 83.1409 173.24 53.8071 35.0898 -57.1059 -2.4436e-006 -3.88161e-006 -1.0928e-005 60.2444 -26.5184 22.86 175.367 83.1515 -173.717 -53.8931 35.05 57.1481 9.47314e-006 -1.10154e-006 1.71943e-006 
1.63429 41.2946 -1.48422 1.28051e-007 38.1694 -9.56473e-008 -1.28311 -0.813038 -1.76179 -2.59098 -1.58599 -3.54185 -2.59097 -1.58599 -3.54185 -1.20058e-006 0.0463026 -2.16803e-006 -0.174937 0.607084 0.00140337 -10.035 -6.61475 -52.59 39.1646 36.3441 28.0671 -57.1788 -47.161 -34.2151 39.9897 -19.9203 33.2855 -1.02914e-006 1.4675e-005 -3.44518e-006 4.36115e-006 -8.59684e-006 1.74317e-006 0 0 -0 -1.02914e-006 1.4675e-005 -3.44518e-006 -0.012826 0.00232183 8.67794e-005 3.97569e-016 3.18055e-015 -1.19271e-015 -1.02914e-006 1.4675e-005 -3.44518e-006 -0.0160705 0.0029883 0.000866123 -1.59028e-015 -3.18055e-015 1.19271e-015 -1.02914e-006 1.4675e-005 -3.44518e-006 -0.0125861 0.00311169 0.00283536 -1.32417e-031 6.36111e-015 1.19271e-015 -1.02914e-006 1.4675e-005 -3.44518e-006 4.36115e-006 -8.59684e-006 1.74317e-006 0 0 -0 47.2754 -4.12613 -6.37886 -50.8774 26.0034 -20.1052 39.2977 -2.16167 15.951 18.7565 -29.017 -38.8752 -3.97569e-016 -8.99501e-015 -1.98785e-016 -1.19271e-015 -8.95773e-015 -1.98785e-016 -1.76729e-032 -2.54693e-015 -3.97569e-016 -3.97569e-016 -8.99501e-015 -1.98785e-016 0.0129437 0.00230595 -8.62184e-005 -3.97569e-016 -4.9075e-015 -3.97569e-016 -3.97569e-016 -8.99501e-015 -1.98785e-016 0.0163384 0.00303032 -0.000874892 -1.72418e-034 4.96962e-017 1.98785e-016 -3.97569e-016 -8.99501e-015 -1.98785e-016 0.0146301 0.00366042 -0.00326613 7.27816e-006 8.66425e-006 -8.44636e-006 -3.97569e-016 -8.99501e-015 -1.98785e-016 -1.19271e-015 -8.95773e-015 -1.98785e-016 -1.76729e-032 -2.54693e-015 -3.97569e-016 -60.0406 -25.173 -22.5193 -174.837 83.806 173.212 53.1102 35.4094 -56.7574 -2.60839e-006 -4.34032e-006 -4.49707e-006 60.0645 -25.2177 22.4501 175.374 83.8165 -173.74 -53.1989 35.3706 56.8026 -1.2921e-015 -1.05358e-007 2.98177e-016 
1.63447 41.2157 -0.937587 9.10097e-007 37.2253 -5.83485e-007 -1.28437 -0.745169 -1.75699 -2.5913 -1.45041 -3.53068 -2.59131 -1.45041 -3.53069 -4.8857e-005 0.0914468 -7.0263e-005 -0.17438 0.679489 0.00140275 -10.2589 -6.20052 -52.5302 39.1608 36.3285 28.0685 -55.99 -46.79 -33.2624 39.7238 -20.1834 33.4661 3.97569e-016 -3.18055e-015 1.98785e-015 -3.97569e-016 0 1.19271e-015 -7.95139e-016 0 2.38542e-015 3.97569e-016 -3.18055e-015 1.98785e-015 -0.0128076 0.00233617 7.7401e-005 1.19271e-015 9.54166e-015 1.59028e-015 3.97569e-016 -3.18055e-015 1.98785e-015 -0.0160682 0.00300361 0.000853452 1.59028e-015 0 -0 3.97569e-016 -3.18055e-015 1.98785e-015 -0.0125885 0.00312558 0.00282122 1.59028e-015 -1.27222e-014 7.95139e-016 3.97569e-016 -3.18055e-015 1.98785e-015 -3.97569e-016 0 1.19271e-015 -7.95139e-016 0 2.38542e-015 47.4261 -4.15815 -6.14394 -50.9221 25.5736 -20.0315 39.2977 -2.16166 15.951 19.5354 -28.1392 -39.3582 9.2764e-006 -3.11861e-006 -5.23198e-006 -7.67478e-006 5.83811e-006 -1.5337e-006 1.00238e-005 -5.74812e-006 2.53579e-006 9.2764e-006 -3.11861e-006 -5.23198e-006 0.0129493 0.0023076 -6.42805e-005 5.41736e-006 6.70111e-006 -9.19939e-006 9.2764e-006 -3.11861e-006 -5.23198e-006 0.0162914 0.00303534 -0.00086202 4.99078e-006 -3.55906e-006 1.31725e-006 9.2764e-006 -3.11861e-006 -5.23198e-006 0.0146265 0.00369046 -0.00325469 1.60349e-032 -1.54058e-015 5.96354e-016 9.2764e-006 -3.11861e-006 -5.23198e-006 -7.67478e-006 5.83811e-006 -1.5337e-006 1.00238e-005 -5.74812e-006 2.53579e-006 -59.8487 -23.8606 -22.1172 -174.786 84.4709 173.176 52.4075 35.7244 -56.402 -8.02962e-007 3.49574e-006 -7.83148e-006 59.895 -23.9142 22.0485 175.385 84.4814 -173.765 -52.4991 35.6868 56.4504 1.13527e-006 1.20379e-006 7.53125e-006 
